<svg width="27" height="27" viewBox="0 0 27 27" fill="none" xmlns="http://www.w3.org/2000/svg">
<path d="M13.5 2.43243C17.1047 2.43243 17.5317 2.44621 18.9552 2.51116C20.2714 2.57117 20.9862 2.7911 21.4619 2.97598C22.0921 3.22088 22.5418 3.51341 23.0142 3.98579C23.4866 4.45823 23.7791 4.90794 24.024 5.53808C24.2089 6.01378 24.4288 6.7286 24.4889 8.04483C24.5538 9.46834 24.5676 9.89533 24.5676 13.4999C24.5676 17.1046 24.5538 17.5316 24.4889 18.9551C24.4288 20.2713 24.2089 20.9862 24.024 21.4619C23.7791 22.092 23.4866 22.5417 23.0142 23.0141C22.5418 23.4865 22.0921 23.7791 21.4619 24.024C20.9862 24.2088 20.2714 24.4288 18.9552 24.4888C17.5319 24.5537 17.1049 24.5675 13.5 24.5675C9.8951 24.5675 9.46822 24.5537 8.04486 24.4888C6.72862 24.4288 6.0138 24.2088 5.5381 24.024C4.90796 23.7791 4.45824 23.4865 3.98586 23.0141C3.51348 22.5417 3.22089 22.092 2.97599 21.4619C2.79111 20.9862 2.57118 20.2713 2.51116 18.9551C2.44622 17.5316 2.43244 17.1046 2.43244 13.4999C2.43244 9.89533 2.44622 9.46834 2.51116 8.04483C2.57118 6.7286 2.79111 6.01378 2.97599 5.53808C3.22089 4.90794 3.51343 4.45823 3.98586 3.98585C4.45824 3.51341 4.90796 3.22088 5.5381 2.97598C6.0138 2.7911 6.72862 2.57117 8.04486 2.51116C9.46838 2.44621 9.89537 2.43243 13.5 2.43243ZM13.5 1.52588e-05C9.83364 1.52588e-05 9.3739 0.0155558 7.93398 0.0812549C6.49706 0.146793 5.5157 0.375025 4.657 0.708719C3.76926 1.05372 3.0164 1.51533 2.26584 2.26583C1.51533 3.01638 1.05372 3.76924 0.708775 4.65699C0.375026 5.51568 0.146794 6.49704 0.0812552 7.93395C0.0155559 9.37387 1.52588e-05 9.8336 1.52588e-05 13.4999C1.52588e-05 17.1663 0.0155559 17.6261 0.0812552 19.066C0.146794 20.5029 0.375026 21.4843 0.708775 22.343C1.05372 23.2307 1.51533 23.9836 2.26584 24.7341C3.0164 25.4846 3.76926 25.9462 4.657 26.2912C5.5157 26.6249 6.49706 26.8531 7.93398 26.9187C9.3739 26.9844 9.83364 26.9999 13.5 26.9999C17.1664 26.9999 17.6261 26.9844 19.066 26.9187C20.503 26.8531 21.4843 26.6249 22.343 26.2912C23.2308 25.9462 23.9836 25.4846 24.7342 24.7341C25.4847 23.9836 25.9463 23.2307 26.2913 22.343C26.625 21.4843 26.8532 20.5029 26.9188 19.066C26.9845 17.6261 27 17.1663 27 13.4999C27 9.8336 26.9845 9.37387 26.9188 7.93395C26.8532 6.49704 26.625 5.51568 26.2913 4.65699C25.9463 3.76924 25.4847 3.01638 24.7342 2.26583C23.9836 1.51533 23.2308 1.05372 22.343 0.708719C21.4843 0.375025 20.503 0.146793 19.066 0.0812549C17.6261 0.0155558 17.1664 1.52588e-05 13.5 1.52588e-05Z" fill="#385883"/>
<path d="M13.5063 6.5738C9.67758 6.5738 6.57385 9.67752 6.57385 13.5062C6.57385 17.3349 9.67758 20.4386 13.5063 20.4386C17.335 20.4386 20.4387 17.3349 20.4387 13.5062C20.4387 9.67752 17.335 6.5738 13.5063 6.5738ZM13.5063 18.0062C11.021 18.0062 9.00628 15.9915 9.00628 13.5062C9.00628 11.0209 11.021 9.00622 13.5063 9.00622C15.9916 9.00622 18.0063 11.0209 18.0063 13.5062C18.0063 15.9915 15.9916 18.0062 13.5063 18.0062Z" fill="#385883"/>
<path d="M22.3321 6.29565C22.3321 7.1903 21.6068 7.91562 20.7121 7.91562C19.8174 7.91562 19.0921 7.1903 19.0921 6.29565C19.0921 5.40094 19.8174 4.67562 20.7121 4.67562C21.6068 4.67562 22.3321 5.40094 22.3321 6.29565Z" fill="#385883"/>
</svg>
