<svg width="276" height="154" viewBox="0 0 276 154" fill="none" xmlns="http://www.w3.org/2000/svg">
<path d="M142.804 104.087C142.884 104.121 142.951 104.163 143.014 104.222C143.073 104.28 143.123 104.352 143.157 104.436C143.194 104.52 143.211 104.616 143.211 104.717V105.158C143.211 105.254 143.186 105.343 143.136 105.418C143.085 105.494 143.035 105.553 142.98 105.59C143.031 105.62 143.081 105.666 143.136 105.729C143.19 105.792 143.211 105.88 143.211 105.985V106.459C143.211 106.56 143.194 106.657 143.157 106.741C143.119 106.825 143.073 106.896 143.014 106.955C142.955 107.014 142.884 107.056 142.804 107.089C142.724 107.123 142.644 107.135 142.565 107.135H137.524V104.037H142.565C142.649 104.041 142.728 104.054 142.804 104.087ZM138.208 105.246H142.283C142.346 105.246 142.405 105.229 142.451 105.2C142.502 105.17 142.523 105.112 142.523 105.028V104.956C142.523 104.868 142.502 104.805 142.456 104.767C142.409 104.73 142.351 104.713 142.275 104.713H138.204V105.246H138.208ZM138.208 106.459H142.292C142.367 106.459 142.426 106.447 142.468 106.426C142.51 106.401 142.527 106.346 142.527 106.258V106.182C142.527 106.098 142.502 106.035 142.451 105.989C142.401 105.947 142.342 105.926 142.279 105.926H138.208V106.459Z" fill="white"/>
<path d="M152.084 104.041C152.164 104.041 152.244 104.058 152.324 104.087C152.403 104.117 152.471 104.163 152.529 104.222C152.588 104.28 152.638 104.352 152.672 104.436C152.71 104.52 152.727 104.616 152.727 104.717V106.459C152.727 106.569 152.71 106.665 152.672 106.749C152.634 106.833 152.588 106.904 152.529 106.959C152.471 107.018 152.399 107.06 152.324 107.089C152.244 107.119 152.164 107.135 152.084 107.135H147.69C147.606 107.135 147.522 107.119 147.446 107.089C147.371 107.06 147.299 107.018 147.241 106.959C147.182 106.9 147.131 106.833 147.098 106.749C147.06 106.665 147.043 106.569 147.043 106.459V104.717C147.043 104.612 147.06 104.515 147.098 104.431C147.136 104.348 147.182 104.276 147.241 104.217C147.299 104.159 147.366 104.117 147.446 104.087C147.522 104.058 147.602 104.041 147.69 104.041H152.084V104.041ZM151.803 106.459C151.866 106.459 151.925 106.434 151.971 106.38C152.017 106.325 152.042 106.258 152.042 106.174V105.002C152.042 104.919 152.021 104.847 151.984 104.797C151.942 104.742 151.883 104.717 151.807 104.717H147.963C147.879 104.717 147.816 104.742 147.782 104.797C147.744 104.851 147.727 104.919 147.727 105.002V106.174C147.727 106.258 147.748 106.329 147.79 106.38C147.832 106.434 147.887 106.459 147.95 106.459H151.803Z" fill="white"/>
<path d="M161.491 106.38C161.541 106.325 161.562 106.258 161.562 106.174V104.041H162.246V106.464C162.246 106.573 162.229 106.669 162.192 106.753C162.154 106.837 162.108 106.909 162.049 106.963C161.99 107.022 161.919 107.064 161.843 107.093C161.764 107.123 161.684 107.14 161.604 107.14H157.209C157.125 107.14 157.042 107.123 156.966 107.093C156.89 107.064 156.819 107.022 156.76 106.963C156.702 106.904 156.651 106.837 156.618 106.753C156.58 106.669 156.563 106.573 156.563 106.464V104.041H157.247V106.174C157.247 106.258 157.268 106.329 157.31 106.38C157.352 106.434 157.407 106.459 157.47 106.459H161.323C161.386 106.459 161.445 106.434 161.491 106.38Z" fill="white"/>
<path d="M166.083 104.041H171.77V104.717H169.264V107.14H168.58V104.717H166.083V104.041Z" fill="white"/>
<path d="M175.602 107.14V104.041H176.291V107.14H175.602Z" fill="white"/>
<path d="M185.164 104.041C185.244 104.041 185.324 104.058 185.403 104.087C185.483 104.117 185.55 104.163 185.609 104.222C185.668 104.28 185.718 104.352 185.752 104.436C185.789 104.52 185.806 104.616 185.806 104.717V106.459C185.806 106.569 185.789 106.665 185.752 106.749C185.714 106.833 185.668 106.904 185.609 106.959C185.55 107.018 185.479 107.06 185.403 107.089C185.324 107.119 185.244 107.135 185.164 107.135H183.964L184.199 107.711H183.502L183.258 107.135H180.765C180.681 107.135 180.597 107.119 180.522 107.089C180.446 107.06 180.375 107.018 180.316 106.959C180.257 106.9 180.207 106.833 180.173 106.749C180.136 106.665 180.119 106.569 180.119 106.459V104.717C180.119 104.612 180.136 104.515 180.173 104.431C180.211 104.348 180.257 104.276 180.316 104.217C180.375 104.159 180.442 104.117 180.522 104.087C180.597 104.058 180.677 104.041 180.765 104.041H185.164V104.041ZM183.368 105.695L183.682 106.464H184.883C184.946 106.464 185.005 106.438 185.051 106.384C185.101 106.329 185.122 106.262 185.122 106.178V105.007C185.122 104.923 185.101 104.851 185.063 104.801C185.021 104.746 184.963 104.721 184.887 104.721H181.042C180.958 104.721 180.895 104.746 180.862 104.801C180.824 104.856 180.807 104.923 180.807 105.007V106.178C180.807 106.262 180.828 106.333 180.87 106.384C180.912 106.438 180.967 106.464 181.03 106.464H182.977L182.662 105.695H183.368Z" fill="white"/>
<path d="M194.57 106.38C194.621 106.325 194.642 106.258 194.642 106.174V104.041H195.326V106.464C195.326 106.573 195.309 106.669 195.271 106.753C195.234 106.837 195.187 106.909 195.129 106.963C195.07 107.022 194.999 107.064 194.923 107.093C194.843 107.123 194.764 107.14 194.684 107.14H190.289C190.205 107.14 190.121 107.123 190.046 107.093C189.97 107.064 189.899 107.022 189.84 106.963C189.781 106.904 189.731 106.837 189.697 106.753C189.659 106.669 189.643 106.573 189.643 106.464V104.041H190.327V106.174C190.327 106.258 190.348 106.329 190.39 106.38C190.432 106.434 190.486 106.459 190.549 106.459H194.403C194.466 106.459 194.52 106.434 194.57 106.38Z" fill="white"/>
<path d="M204.846 106.459V107.135H199.158V104.037H204.846V104.713H199.842V105.242H204.846V105.918H199.842V106.455H204.846V106.459Z" fill="white"/>
<path d="M218.848 104.041C218.928 104.041 219.008 104.058 219.087 104.087C219.167 104.117 219.234 104.163 219.293 104.222C219.352 104.28 219.402 104.352 219.436 104.436C219.474 104.52 219.49 104.616 219.49 104.717V105.183H218.806V105.002C218.806 104.919 218.785 104.847 218.747 104.797C218.706 104.742 218.647 104.717 218.571 104.717H214.726C214.642 104.717 214.579 104.742 214.546 104.797C214.508 104.851 214.491 104.919 214.491 105.002V106.174C214.491 106.258 214.512 106.329 214.554 106.38C214.596 106.434 214.651 106.459 214.714 106.459H218.567C218.63 106.459 218.689 106.434 218.735 106.38C218.785 106.325 218.806 106.258 218.806 106.174V105.989H219.49V106.464C219.49 106.573 219.474 106.669 219.436 106.753C219.398 106.837 219.352 106.909 219.293 106.963C219.234 107.022 219.163 107.064 219.087 107.093C219.008 107.123 218.928 107.14 218.848 107.14H214.454C214.37 107.14 214.286 107.123 214.21 107.093C214.135 107.064 214.063 107.022 214.004 106.963C213.946 106.904 213.895 106.837 213.862 106.753C213.824 106.669 213.807 106.573 213.807 106.464V104.721C213.807 104.616 213.824 104.52 213.862 104.436C213.9 104.352 213.946 104.28 214.004 104.222C214.063 104.163 214.13 104.121 214.21 104.091C214.286 104.062 214.365 104.045 214.454 104.045H218.848V104.041Z" fill="white"/>
<path d="M228.33 107.14V105.926H224.011V107.14H223.327V104.717C223.327 104.612 223.344 104.515 223.381 104.431C223.419 104.348 223.465 104.276 223.524 104.217C223.583 104.159 223.65 104.117 223.73 104.087C223.805 104.058 223.885 104.041 223.973 104.041H228.368C228.448 104.041 228.527 104.058 228.607 104.087C228.687 104.117 228.754 104.163 228.813 104.222C228.872 104.28 228.922 104.352 228.956 104.436C228.993 104.52 229.01 104.616 229.01 104.717V107.14H228.33V107.14ZM224.011 105.246H228.33V105.002C228.33 104.919 228.309 104.847 228.271 104.797C228.229 104.742 228.171 104.717 228.095 104.717H224.25C224.166 104.717 224.103 104.742 224.07 104.797C224.032 104.851 224.015 104.919 224.015 105.002V105.246H224.011Z" fill="white"/>
<path d="M232.847 107.14V104.041H238.534V104.717H233.531V105.246H238.534V105.922H233.531V107.135H232.847V107.14Z" fill="white"/>
<path d="M248.05 106.459V107.135H242.362V104.037H248.05V104.713H243.046V105.242H248.05V105.918H243.046V106.455H248.05V106.459Z" fill="white"/>
<path d="M175.758 44.4295C175.783 44.4169 175.808 44.3959 175.821 44.3707C176.039 44.039 177.449 41.6122 172.761 41.1C167.728 40.55 146.77 55.7195 144.218 73.1646C144.218 73.1646 141.943 91.2227 158.825 86.2684C158.834 86.2684 158.838 86.2642 158.842 86.26C159.102 86.155 165.025 83.6611 170.553 75.3688C170.553 75.3688 170.956 74.9658 170.767 76.0238C170.763 76.0448 170.754 76.0658 170.746 76.0868C170.477 76.5361 167.073 82.4519 170.725 86.4321C170.75 86.4573 170.784 86.4783 170.817 86.4867C171.367 86.6169 175.968 87.4608 180.757 80.4785C180.757 80.4743 180.761 80.4743 180.761 80.4701C180.929 80.2014 189.089 67.0179 187.997 72.6818C187.997 72.6818 184.207 86.0585 195.238 86.8184C206.143 87.5699 211.591 79.0846 216.242 68.5587C216.326 68.374 216.603 68.4412 216.586 68.6427C216.556 69.0458 216.38 69.8057 215.851 71.2248C215.851 71.229 215.847 71.2332 215.847 71.2374C215.734 71.6447 210.6 89.9967 221.975 85.7142C221.979 85.71 221.988 85.71 221.992 85.7058C222.231 85.5882 227.428 82.9095 236.204 68.2354C236.288 68.0927 236.502 68.1305 236.536 68.29C236.612 68.6343 236.603 69.2095 236.125 69.9695C236.116 69.9821 236.112 69.9905 236.108 70.0031C235.911 70.5909 231.1 85.1138 242.043 86.4657C253.112 87.8345 257.746 79.7858 263.059 72.5936C263.169 72.4466 263.399 72.5348 263.387 72.7195C263.374 72.8749 263.324 73.0974 263.211 73.4249C263.211 73.4291 263.206 73.4333 263.206 73.4375C263.026 74.1303 246.95 131.731 246.19 134.38C246.182 134.405 246.169 134.435 246.165 134.468C246.073 134.993 244.797 139.922 246.073 140.72C247.42 141.56 251.794 142.991 253.561 137.017C255.311 131.097 275.068 51.9785 275.433 50.509C275.438 50.4964 275.442 50.4838 275.446 50.4712C275.618 50.1479 277.964 45.3489 271.458 38.4339C271.416 38.3877 271.349 38.3667 271.291 38.3793C270.913 38.4675 269.561 39.1602 267.945 44.5386C266.031 50.8995 253.347 77.7369 246.912 78.8201C246.912 78.8201 245.712 79.7018 249.691 79.2357C249.691 79.2357 250.95 79.5674 248.1 80.1636C248.1 80.1636 240.524 82.4687 242.282 70.6958C242.282 70.6874 242.282 70.6832 242.286 70.679C242.404 70.2088 247.412 50.5216 248.591 47.5574C248.595 47.5448 248.599 47.5364 248.599 47.5238C248.658 47.1837 249.531 41.8431 244.948 43.8123C244.914 43.8291 244.88 43.8542 244.864 43.8878C244.566 44.3833 242.114 48.4685 239.592 53.5152C236.943 58.8138 228.758 72.7447 223.608 75.604C223.478 75.6753 223.486 75.8601 223.621 75.9231C223.742 75.9818 223.914 76.0448 224.15 76.091C224.313 76.1246 224.347 76.3429 224.204 76.4269C223.344 76.9181 221.404 77.6193 221.006 74.336C221.001 74.315 221.006 74.294 221.01 74.2772C221.211 73.2822 226.55 47.0158 226.223 45.9409C225.887 44.8451 224.288 43.9214 222.857 46.1089C221.451 48.2586 212.485 74.1555 201.63 77.1197C201.45 77.17 201.45 77.4262 201.63 77.4681C201.639 77.4681 201.647 77.4723 201.656 77.4723C201.849 77.5185 201.845 77.7872 201.651 77.825C199.746 78.2029 195.998 78.0517 195.679 71.1157C195.679 71.1073 195.679 71.0989 195.679 71.0905C195.737 70.5195 197.861 50.7861 220.586 42.9054C220.586 42.9054 223.847 41.8179 221.287 40.0629C221.27 40.0503 221.249 40.0419 221.232 40.0377C220.557 39.853 208.552 36.8258 194.004 53.1709C194 53.1751 194 53.1751 194 53.1793C193.802 53.427 181.924 68.2187 178.881 74.5879C178.864 74.6257 178.839 74.6509 178.801 74.6677C178.532 74.802 177.449 75.1547 179.611 70.5993C179.611 70.5951 179.615 70.5951 179.615 70.5909C179.754 70.2508 190.747 43.1321 194.843 26.5729C198.948 9.97584 203.947 4.23637 202.327 1.69623C202.315 1.67523 202.298 1.65844 202.277 1.64165C201.899 1.37713 198.071 -1.17141 194.877 1.83058C194.86 1.84738 194.843 1.86837 194.835 1.88936C194.675 2.24204 193.244 5.48335 190.549 14.1156C187.687 23.2896 180.115 49.5517 180.115 49.5517C180.115 49.5517 173.634 68.521 169.848 71.0737C166.062 73.6264 166.398 74.7181 159.665 76.4857C159.665 76.4857 159.384 76.6536 159.971 76.809C160.143 76.8552 160.152 77.0987 159.98 77.1574C159.291 77.3926 158.028 77.5437 156.722 76.238C156.722 76.238 151.169 71.2752 159.073 59.1581C159.077 59.1539 159.077 59.1497 159.081 59.1455C159.207 58.9146 163.598 50.9415 175.758 44.4295Z" fill="white"/>
<path d="M59.5485 31.4894C59.5485 31.4894 60.1277 28.9115 62.94 28.668C62.94 28.668 66.4406 29.2222 67.2633 29.6084C67.2633 29.6084 68.6149 30.1291 67.6747 32.623L59.5485 31.4894Z" fill="white"/>
<path d="M146.51 43.405C146.51 43.405 145.587 41.4695 143.904 39.198C142.367 37.1239 141.532 38.9755 141.398 39.3156C141.385 39.345 141.377 39.3786 141.373 39.4121C141.314 39.979 140.537 46.1257 132.457 61.2532C126.396 72.5978 123.076 75.8097 121.666 76.7166C121.456 76.851 121.527 77.1784 121.775 77.2162L121.867 77.2288C122.111 77.2666 122.186 77.5773 121.989 77.7201C121.955 77.7453 121.913 77.762 121.876 77.7704C116.898 78.6857 116.545 74.9112 116.524 74.4955C116.52 74.4704 116.516 74.4452 116.511 74.42C114.774 68.6175 120.587 50.488 120.755 47.0242C120.902 43.9886 120.533 43.0229 120.44 42.8298C120.428 42.8046 120.415 42.7836 120.398 42.7626C116.91 38.4465 110.681 52.2262 110.438 52.7637C110.434 52.7762 110.429 52.7846 110.421 52.7972C98.8278 72.6818 88.5064 77.1658 88.5064 77.1658C84.8378 79.0006 79.9689 78.2071 79.4148 78.1063C79.3812 78.1021 79.3476 78.0895 79.3141 78.0727C73.9036 75.2765 75.8344 74.378 76.0443 74.294C76.0569 74.2898 76.0653 74.2856 76.0779 74.2814C100.276 67.253 104.843 54.5565 105.858 47.444C106.454 43.279 104.436 40.508 102.66 38.9293C100.943 37.4976 98.5717 37.0315 96.8802 36.893C73.3957 35.6208 66.7135 67.0053 65.9873 67.0053C65.2444 67.0053 59.2547 68.2984 58.9735 68.3572C58.9651 68.3572 58.9609 68.3614 58.9525 68.3614C55.4938 69.3733 56.0017 68.7813 56.0017 68.7813L57.9745 67.677C58.0668 67.6267 58.134 67.5385 58.1634 67.4377L67.5781 32.4299C67.6789 31.9722 67.788 31.6909 67.8762 31.3257L68.0944 30.5111C68.1993 30.1165 67.9853 29.7092 67.6033 29.5707C67.4606 29.5203 67.3179 29.4699 67.1752 29.4237C67.1668 29.4195 67.1584 29.4195 67.15 29.4153C66.9443 29.3229 66.5875 29.2222 66.1678 29.1172C64.4469 28.647 63.0281 28.4958 62.8728 28.4832C62.8645 28.4832 62.8561 28.4832 62.8435 28.4832C61.7731 28.4958 60.7406 29.1718 60.1991 29.5958C59.9515 29.789 59.7794 30.0535 59.6996 30.3558L59.4688 31.2375C59.4562 31.2837 59.452 31.3089 59.452 31.3089L49.2901 70.1752C49.2523 70.3138 49.1432 70.4229 49.0004 70.4565C45.143 71.3718 33.1679 73.1268 30.3556 73.5341C30.0786 73.5761 29.8561 73.3199 29.9233 73.0512C31.023 68.8191 36.0011 44.8241 37.3694 38.2281C37.4912 37.5312 37.6843 37.1071 37.6843 36.7125V36.7083C37.6926 36.6663 37.6884 36.6285 37.6801 36.5907C37.6213 35.5159 36.9371 35.2513 36.9371 35.2513C36.1732 34.8945 33.0755 34.3864 32.66 34.3193C32.6264 34.3151 32.597 34.3151 32.5676 34.3151C29.7931 34.5964 29.0418 38.2617 29.0418 38.2617C29.0124 38.3373 28.9956 38.3793 28.9956 38.3793C28.5465 39.219 21.1003 72.2913 20.3532 75.6208C20.3196 75.7761 20.1937 75.8937 20.0342 75.9147C17.2933 76.2757 5.9687 80.6255 2.89201 81.8179C2.88781 81.8179 0.302213 82.2042 0 84.4126C0 84.4126 0.478504 87.1795 0.847875 87.8387C0.847875 87.8387 1.35156 88.9345 3.80284 88.3005C8.28147 88.3299 17.5997 86.1592 17.5997 86.1592C17.9901 86.0417 18.2713 85.9871 18.477 85.9745C18.775 85.9535 18.8841 86.3608 18.6155 86.4951L17.5955 87.0073C17.4948 87.0577 17.4192 87.1501 17.3898 87.2635L13.1379 104.343C12.4999 106.9 7.56371 126.004 6.4556 132.1C6.4556 132.109 6.4514 132.117 6.44721 132.13C5.77982 134.485 6.84596 134.968 6.84176 134.959C7.46717 135.312 9.97722 135.808 10.3844 135.887C10.4221 135.896 10.4599 135.896 10.4977 135.892C12.7895 135.614 13.2638 133.078 13.2638 133.078C15.6983 125.899 25.7972 87.8135 26.7039 84.3916C26.7458 84.2405 26.8676 84.1313 27.0229 84.1061L45.8776 81.2049C46.1546 81.1629 46.3855 81.4148 46.3183 81.6877L38.381 113.773L29.6504 147.744C29.6462 147.765 29.642 147.786 29.642 147.807C29.6378 147.845 29.6378 147.883 29.6336 147.916C29.4825 148.68 29.2433 150.104 29.3482 150.868C29.3482 150.872 29.3482 150.872 29.3482 150.876C29.1509 152.589 29.8939 152.988 29.8939 152.988C30.1667 153.165 30.8215 153.37 31.4805 153.551C31.6316 153.605 31.7785 153.643 31.9254 153.668C32.6558 153.857 33.2896 153.996 33.2896 153.996C34.8762 153.811 35.5562 152.337 35.8164 151.519C35.8164 151.519 36.2613 150.57 36.2403 150.616C36.7944 149.562 37.8647 147.337 38.3432 145.095C40.1439 140.044 54.0457 83.3798 55.1412 78.9167C55.1832 78.7487 55.3259 78.6354 55.498 78.627C59.985 78.396 64.3503 76.8552 65.6893 76.4815C65.895 76.4227 66.1006 76.5487 66.1594 76.7544C69.127 87.5322 81.7024 86.6421 82.3656 86.5875C82.3824 86.5875 82.3992 86.5833 82.4159 86.5791C99.1468 82.6954 108.813 65.5442 108.813 65.5442C109.993 63.6086 109.909 64.8724 109.909 64.8724C105.447 84.9038 113.275 86.3356 113.275 86.3356C126.317 88.7749 133.049 72.6985 133.049 72.6985C133.905 70.6244 134.22 71.4054 134.292 71.6867C134.304 71.7371 134.304 71.7917 134.283 71.842L132.038 77.7327C126.484 93.7923 125.897 103.672 124.717 107.207C123.567 110.658 122.74 115.306 122.698 115.533C122.698 115.537 122.694 115.545 122.694 115.549C122.635 115.797 121.347 121.373 121.221 123.371C120.768 126.306 121.842 126.961 121.842 126.961C122.514 127.347 125.25 127.734 125.25 127.734C127.378 127.255 127.647 123.787 127.647 123.787L129.259 117.98L135.74 89.7826C135.74 89.7826 145.587 51.3193 146.51 48.12C147.434 44.9207 146.51 43.405 146.51 43.405ZM75.2888 64.0579C75.5364 63.7724 75.7799 63.3735 75.9603 62.8109C75.9603 62.8109 81.5177 44.7905 93.3712 45.6806C93.4047 45.6848 93.4341 45.689 93.4635 45.7016C93.963 45.878 98.2485 47.6498 93.7531 55.2072C89.795 61.8578 79.5365 64.146 75.5952 64.6541C75.2678 64.6876 75.0705 64.3056 75.2888 64.0579Z" fill="white"/>
<path d="M194.44 2.82145C194.44 2.82145 195.02 0.243518 197.832 0C197.832 0 201.332 0.554214 202.155 0.940484C202.155 0.940484 203.368 1.75501 202.428 4.24897L194.44 2.82145Z" fill="white"/>
<path d="M253.422 137.479C253.422 137.479 253.011 140.913 250.492 141.572C250.492 141.572 247.214 141.551 246.404 141.295C246.404 141.295 245.09 140.989 245.539 138.385L253.422 137.479Z" fill="white"/>
</svg>
